<svg xmlns="http://www.w3.org/2000/svg" width="1100" height="680"><rect width="100%" height="100%" fill="#F7F8FA"/><text x="60" y="42" font-family="sans-serif" font-size="26" font-weight="700">F11 — sparse candidate discovery scaling</text><line x1="100" y1="590" x2="1050" y2="590" stroke="#10131A" stroke-width="2"/><line x1="100" y1="70" x2="100" y2="590" stroke="#10131A" stroke-width="2"/><polyline points="733.3,582.5 891.7,541.7 1002.3,347.8 1050.0,106.7" fill="none" stroke="#F04438" stroke-width="2" opacity="0.45"/><polyline points="733.3,590.0 891.7,590.0 1002.3,589.9 1050.0,589.8" fill="none" stroke="#18C6D9" stroke-width="3" opacity="0.8"/><polyline points="733.3,584.8 891.7,540.9 1002.3,348.3 1050.0,110.9" fill="none" stroke="#F04438" stroke-width="2" opacity="0.45"/><polyline points="733.3,590.0 891.7,589.9 1002.3,589.4 1050.0,588.9" fill="none" stroke="#18C6D9" stroke-width="3" opacity="0.8"/><polyline points="733.3,585.2 891.7,540.4 1002.3,346.7 1050.0,106.6" fill="none" stroke="#F04438" stroke-width="2" opacity="0.45"/><polyline points="733.3,590.0 891.7,589.8 1002.3,588.9 1050.0,587.9" fill="none" stroke="#18C6D9" stroke-width="3" opacity="0.8"/><polyline points="733.3,585.3 891.7,539.5 1002.3,342.8 1050.0,83.3" fill="none" stroke="#F04438" stroke-width="2" opacity="0.45"/><polyline points="733.3,589.9 891.7,589.0 1002.3,584.8 1050.0,579.2" fill="none" stroke="#18C6D9" stroke-width="3" opacity="0.8"/><polyline points="733.3,585.3 891.7,538.4 1002.3,336.4 1050.0,70.0" fill="none" stroke="#F04438" stroke-width="2" opacity="0.45"/><polyline points="733.3,589.8 891.7,587.9 1002.3,579.7 1050.0,568.7" fill="none" stroke="#18C6D9" stroke-width="3" opacity="0.8"/><text x="575.0" y="655" text-anchor="middle" font-family="sans-serif" font-size="16">Gaussian count (log scale)</text><text transform="translate(28 330.0) rotate(-90)" text-anchor="middle" font-family="sans-serif" font-size="16">mean selection latency (ms)</text><text x="790" y="55" font-family="sans-serif" font-size="14" fill="#F04438">full scan</text><text x="900" y="55" font-family="sans-serif" font-size="14" fill="#18C6D9">indexed</text></svg>