<svg xmlns="http://www.w3.org/2000/svg" width="900" height="560" viewBox="0 0 900 560"><rect width="100%" height="100%" fill="white"/><text x="30" y="34" font-family="sans-serif" font-size="20">F1 — measured error vs certified bound</text><line x1="80" y1="490" x2="870" y2="490" stroke="black"/><line x1="80" y1="60" x2="80" y2="490" stroke="black"/><line x1="80.0" y1="490.0" x2="870.0" y2="60.0" stroke="gray" stroke-dasharray="6,5"/><circle cx="80.000" cy="60.000" r="4"><title>db-drjohnson/1-&gt;2/rgb_linf: x=0, y=2e-06</title></circle><circle cx="80.000" cy="60.000" r="4"><title>db-drjohnson/1-&gt;2/rgb_linf: x=0, y=2e-06</title></circle><circle cx="80.000" cy="60.000" r="4"><title>db-drjohnson/1-&gt;2/rgb_linf: x=0, y=2e-06</title></circle><circle cx="80.000" cy="60.000" r="4"><title>db-drjohnson/1-&gt;2/rgb_linf: x=0, y=2e-06</title></circle><circle cx="80.000" cy="60.000" r="4"><title>db-drjohnson/1-&gt;2/rgb_linf: x=0, y=2e-06</title></circle><circle cx="80.000" cy="60.000" r="4"><title>db-drjohnson/1-&gt;2/rgb_linf: x=0, y=2e-06</title></circle><circle cx="80.000" cy="60.000" r="4"><title>db-drjohnson/1-&gt;2/rgb_linf: x=0, y=2e-06</title></circle><circle cx="80.000" cy="60.000" r="4"><title>db-drjohnson/1-&gt;2/rgb_linf: x=0, y=2e-06</title></circle><circle cx="80.000" cy="60.000" r="4"><title>db-drjohnson/1-&gt;2/rgb_linf: x=0, y=2e-06</title></circle><circle cx="80.000" cy="60.000" r="4"><title>db-drjohnson/1-&gt;2/rgb_linf: x=0, y=2e-06</title></circle><circle cx="80.000" cy="490.000" r="4"><title>db-drjohnson/1-&gt;2/rgb_linf: x=0, y=0</title></circle><circle cx="80.000" cy="60.000" r="4"><title>db-drjohnson/1-&gt;2/rgb_linf: x=0, y=2e-06</title></circle><circle cx="80.000" cy="490.000" r="4"><title>db-drjohnson/1-&gt;2/rgb_linf: x=0, y=0</title></circle><circle cx="80.000" cy="490.000" r="4"><title>db-drjohnson/1-&gt;2/rgb_linf: x=0, y=0</title></circle><circle cx="80.000" cy="490.000" r="4"><title>db-drjohnson/1-&gt;2/rgb_linf: x=0, y=0</title></circle><circle cx="80.000" cy="60.000" r="4"><title>tandt-truck/1-&gt;2/rgb_linf: x=0, y=2e-06</title></circle><circle cx="80.000" cy="60.000" r="4"><title>tandt-truck/1-&gt;2/rgb_linf: x=0, y=2e-06</title></circle><circle cx="80.000" cy="60.000" r="4"><title>tandt-truck/1-&gt;2/rgb_linf: x=0, y=2e-06</title></circle><circle cx="80.000" cy="60.000" r="4"><title>tandt-truck/1-&gt;2/rgb_linf: x=0, y=2e-06</title></circle><circle cx="80.000" cy="60.000" r="4"><title>tandt-truck/1-&gt;2/rgb_linf: x=0, y=2e-06</title></circle><circle cx="80.000" cy="60.000" r="4"><title>tandt-truck/1-&gt;2/rgb_linf: x=0, y=2e-06</title></circle><circle cx="80.000" cy="60.000" r="4"><title>tandt-truck/1-&gt;2/rgb_linf: x=0, y=2e-06</title></circle><circle cx="80.000" cy="60.000" r="4"><title>tandt-truck/1-&gt;2/rgb_linf: x=0, y=2e-06</title></circle><circle cx="80.000" cy="60.000" r="4"><title>tandt-truck/1-&gt;2/rgb_linf: x=0, y=2e-06</title></circle><circle cx="80.000" cy="60.000" r="4"><title>tandt-truck/1-&gt;2/rgb_linf: x=0, y=2e-06</title></circle><circle cx="80.000" cy="490.000" r="4"><title>tandt-truck/1-&gt;2/rgb_linf: x=0, y=0</title></circle><circle cx="80.000" cy="60.000" r="4"><title>tandt-truck/1-&gt;2/rgb_linf: x=0, y=2e-06</title></circle><circle cx="80.000" cy="490.000" r="4"><title>tandt-truck/1-&gt;2/rgb_linf: x=0, y=0</title></circle><circle cx="80.000" cy="490.000" r="4"><title>tandt-truck/1-&gt;2/rgb_linf: x=0, y=0</title></circle><circle cx="80.000" cy="490.000" r="4"><title>tandt-truck/1-&gt;2/rgb_linf: x=0, y=0</title></circle><circle cx="80.000" cy="60.000" r="4"><title>tandt-train/1-&gt;2/rgb_linf: x=0, y=2e-06</title></circle><circle cx="80.000" cy="60.000" r="4"><title>tandt-train/1-&gt;2/rgb_linf: x=0, y=2e-06</title></circle><circle cx="80.000" cy="60.000" r="4"><title>tandt-train/1-&gt;2/rgb_linf: x=0, y=2e-06</title></circle><circle cx="80.000" cy="60.000" r="4"><title>tandt-train/1-&gt;2/rgb_linf: x=0, y=2e-06</title></circle><circle cx="80.000" cy="60.000" r="4"><title>tandt-train/1-&gt;2/rgb_linf: x=0, y=2e-06</title></circle><circle cx="80.000" cy="60.000" r="4"><title>tandt-train/1-&gt;2/rgb_linf: x=0, y=2e-06</title></circle><circle cx="80.000" cy="60.000" r="4"><title>tandt-train/1-&gt;2/rgb_linf: x=0, y=2e-06</title></circle><circle cx="80.000" cy="60.000" r="4"><title>tandt-train/1-&gt;2/rgb_linf: x=0, y=2e-06</title></circle><circle cx="80.000" cy="60.000" r="4"><title>tandt-train/1-&gt;2/rgb_linf: x=0, y=2e-06</title></circle><circle cx="80.000" cy="60.000" r="4"><title>tandt-train/1-&gt;2/rgb_linf: x=0, y=2e-06</title></circle><circle cx="80.000" cy="490.000" r="4"><title>tandt-train/1-&gt;2/rgb_linf: x=0, y=0</title></circle><circle cx="80.000" cy="60.000" r="4"><title>tandt-train/1-&gt;2/rgb_linf: x=0, y=2e-06</title></circle><circle cx="80.000" cy="490.000" r="4"><title>tandt-train/1-&gt;2/rgb_linf: x=0, y=0</title></circle><circle cx="80.000" cy="490.000" r="4"><title>tandt-train/1-&gt;2/rgb_linf: x=0, y=0</title></circle><circle cx="80.000" cy="490.000" r="4"><title>tandt-train/1-&gt;2/rgb_linf: x=0, y=0</title></circle><circle cx="80.000" cy="60.000" r="4"><title>db-playroom/1-&gt;2/rgb_linf: x=0, y=2e-06</title></circle><circle cx="80.000" cy="60.000" r="4"><title>db-playroom/1-&gt;2/rgb_linf: x=0, y=2e-06</title></circle><circle cx="80.000" cy="60.000" r="4"><title>db-playroom/1-&gt;2/rgb_linf: x=0, y=2e-06</title></circle><circle cx="80.000" cy="60.000" r="4"><title>db-playroom/1-&gt;2/rgb_linf: x=0, y=2e-06</title></circle><circle cx="80.000" cy="60.000" r="4"><title>db-playroom/1-&gt;2/rgb_linf: x=0, y=2e-06</title></circle><circle cx="80.000" cy="60.000" r="4"><title>db-playroom/1-&gt;2/rgb_linf: x=0, y=2e-06</title></circle><circle cx="80.000" cy="60.000" r="4"><title>db-playroom/1-&gt;2/rgb_linf: x=0, y=2e-06</title></circle><circle cx="80.000" cy="60.000" r="4"><title>db-playroom/1-&gt;2/rgb_linf: x=0, y=2e-06</title></circle><circle cx="80.000" cy="60.000" r="4"><title>db-playroom/1-&gt;2/rgb_linf: x=0, y=2e-06</title></circle><circle cx="80.000" cy="60.000" r="4"><title>db-playroom/1-&gt;2/rgb_linf: x=0, y=2e-06</title></circle><circle cx="80.000" cy="490.000" r="4"><title>db-playroom/1-&gt;2/rgb_linf: x=0, y=0</title></circle><circle cx="80.000" cy="60.000" r="4"><title>db-playroom/1-&gt;2/rgb_linf: x=0, y=2e-06</title></circle><circle cx="80.000" cy="490.000" r="4"><title>db-playroom/1-&gt;2/rgb_linf: x=0, y=0</title></circle><circle cx="80.000" cy="490.000" r="4"><title>db-playroom/1-&gt;2/rgb_linf: x=0, y=0</title></circle><circle cx="80.000" cy="490.000" r="4"><title>db-playroom/1-&gt;2/rgb_linf: x=0, y=0</title></circle><text x="475.0" y="540" text-anchor="middle" font-family="sans-serif" font-size="14">measured full-reference error</text><text transform="translate(20 275.0) rotate(-90)" text-anchor="middle" font-family="sans-serif" font-size="14">certified bound</text><text x="80" y="514" font-family="monospace" font-size="11">0</text><text x="835" y="514" font-family="monospace" font-size="11">2e-06</text><text x="25" y="490" font-family="monospace" font-size="11">0</text><text x="25" y="70" font-family="monospace" font-size="11">2e-06</text></svg>
